<svg width="24" height="24" viewBox="0 0 24 24" fill="none" xmlns="http://www.w3.org/2000/svg">
<path d="M20.9999 5.81195C20.9999 6.26331 20.78 6.71025 20.3529 7.12725C19.9257 7.54425 19.2996 7.92315 18.5103 8.24231C17.721 8.56146 16.784 8.81463 15.7527 8.98736C14.7214 9.16009 13.6161 9.24899 12.4999 9.24899C10.2455 9.24899 8.08353 8.88688 6.48947 8.24231C4.89541 7.59774 3.99988 6.72351 3.99988 5.81195C3.99988 5.36059 4.21974 4.91365 4.6469 4.49665C5.07407 4.07965 5.70017 3.70075 6.48947 3.38159C7.27877 3.06244 8.2158 2.80927 9.24707 2.63654C10.2783 2.46381 11.3836 2.37491 12.4999 2.37491C13.6161 2.37491 14.7214 2.46381 15.7527 2.63654C16.784 2.80927 17.721 3.06244 18.5103 3.38159C19.2996 3.70075 19.9257 4.07965 20.3529 4.49665C20.78 4.91365 20.9999 5.36059 20.9999 5.81195Z" stroke="#101010" stroke-linecap="round" stroke-linejoin="round"/>
<path d="M20.9999 18.1853C20.9999 18.7886 20.6071 19.3813 19.8611 19.9038C19.1151 20.4263 18.042 20.8602 16.7499 21.1619C15.4577 21.4635 13.9919 21.6223 12.4999 21.6223C11.0078 21.6223 9.54204 21.4635 8.24988 21.1619C6.95771 20.8602 5.88469 20.4263 5.13866 19.9038C4.39263 19.3813 3.99988 18.7886 3.99988 18.1853" stroke="#101010" stroke-linecap="round" stroke-linejoin="round"/>
<path d="M20.9999 14.0609C20.9999 14.6642 20.6071 15.2569 19.8611 15.7794C19.1151 16.3019 18.042 16.7358 16.7499 17.0374C15.4577 17.3391 13.9919 17.4979 12.4999 17.4979C11.0078 17.4979 9.54204 17.3391 8.24988 17.0374C6.95771 16.7358 5.88469 16.3019 5.13866 15.7794C4.39263 15.2569 3.99988 14.6642 3.99988 14.0609" stroke="#101010" stroke-linecap="round" stroke-linejoin="round"/>
<path d="M20.9999 9.9364C20.9999 10.5397 20.6071 11.1324 19.8611 11.6549C19.1151 12.1774 18.042 12.6113 16.7499 12.913C15.4577 13.2146 13.9919 13.3734 12.4999 13.3734C11.0078 13.3734 9.54204 13.2146 8.24988 12.913C6.95771 12.6113 5.88469 12.1774 5.13866 11.6549C4.39263 11.1324 3.99988 10.5397 3.99988 9.9364" stroke="#101010" stroke-linecap="round" stroke-linejoin="round"/>
<path d="M3.99988 5.81197V18.1853" stroke="#101010" stroke-linecap="round" stroke-linejoin="round"/>
<path d="M21 5.81192V18.1853" stroke="#101010" stroke-linecap="round" stroke-linejoin="round"/>
</svg>
