<svg width="19" height="24" viewBox="0 0 19 24" fill="none" xmlns="http://www.w3.org/2000/svg">
<path d="M18.1487 17.9792L16.6183 16.4488V10.5171C16.6183 6.87498 14.6727 3.82606 11.2797 3.01934V2.21263C11.2797 1.22796 10.4849 0.433105 9.5002 0.433105C8.51553 0.433105 7.72068 1.22796 7.72068 2.21263V3.01934C4.31586 3.82606 2.38211 6.86311 2.38211 10.5171V16.4488L0.851725 17.9792C0.104326 18.7266 0.626319 20.0078 1.68217 20.0078H17.3064C18.3741 20.0078 18.8961 18.7266 18.1487 17.9792ZM14.2456 17.6352H4.75481V10.5171C4.75481 7.57492 6.5462 5.1785 9.5002 5.1785C12.4542 5.1785 14.2456 7.57492 14.2456 10.5171V17.6352ZM9.5002 23.5669C10.8052 23.5669 11.8729 22.4992 11.8729 21.1942H7.12751C7.12751 22.4992 8.18336 23.5669 9.5002 23.5669Z" fill="#010101" fill-opacity="0.3"/>
</svg>
